HIERARCHY
ROOT Hips
{
	OFFSET 0.00000 0.00000 0.00000
	CHANNELS 6 Xposition Yposition Zposition Zrotation Yrotation Xrotation 
	JOINT LHipJoint
	{
		OFFSET 0 0 0
		CHANNELS 3 Zrotation Yrotation Xrotation
		JOINT LeftHip
		{
			OFFSET 1.86795 -1.59681 0.65681
			CHANNELS 3 Zrotation Yrotation Xrotation
			JOINT LeftKnee
			{
				OFFSET 2.30491 -6.33268 0.00000
				CHANNELS 3 Zrotation Yrotation Xrotation
				JOINT LeftAnkle
				{
					OFFSET 2.46780 -6.78022 0.00000
					CHANNELS 3 Zrotation Yrotation Xrotation
					JOINT LeftToe
					{
						OFFSET 0.07897 -0.21698 1.59652
						CHANNELS 3 Zrotation Yrotation Xrotation
						End Site
						{
							OFFSET 0.00000 -0.00000 0.82310
						}
					}
				}
			}
		}
	}
	JOINT RHipJoint
	{
		OFFSET 0 0 0
		CHANNELS 3 Zrotation Yrotation Xrotation
		JOINT RightHip
		{
			OFFSET -1.93650 -1.59681 0.65681
			CHANNELS 3 Zrotation Yrotation Xrotation
			JOINT RightKnee
			{
				OFFSET -2.29410 -6.30299 0.00000
				CHANNELS 3 Zrotation Yrotation Xrotation
				JOINT RightAnkle
				{
					OFFSET -2.48738 -6.83403 0.00000
					CHANNELS 3 Zrotation Yrotation Xrotation
					JOINT RightToe
					{
						OFFSET -0.08699 -0.23899 1.89395
						CHANNELS 3 Zrotation Yrotation Xrotation
						End Site
						{
							OFFSET -0.00000 -0.00000 0.96904
						}
					}
				}
			}
		}
	}
	JOINT lowerback
	{
		OFFSET 0 0 0
		CHANNELS 3 Zrotation Yrotation Xrotation
		JOINT Chest
		{
			OFFSET 0.03629 1.99740 -0.07548
			CHANNELS 3 Zrotation Yrotation Xrotation
			JOINT Chest2
			{
				OFFSET 0.03970 1.94298 0.17218
				CHANNELS 3 Zrotation Yrotation Xrotation
				JOINT lowerneck
				{
					OFFSET 0 0 0
					CHANNELS 3 Zrotation Yrotation Xrotation
					JOINT Neck
					{
						OFFSET -0.05054 1.79469 0.04241
						CHANNELS 3 Zrotation Yrotation Xrotation
						JOINT Head
						{
							OFFSET 0.05195 1.78475 -0.22133
							CHANNELS 3 Zrotation Yrotation Xrotation
							End Site
							{
								OFFSET 0.02420 1.80711 -0.07950
							}
						}
					}
				}
				JOINT LeftCollar
				{
					OFFSET 0 0 0
					CHANNELS 3 Zrotation Yrotation Xrotation
					JOINT LeftShoulder
					{
						OFFSET 2.92134 1.19850 0.36056
CHANNELS 3 Zrotation Xrotation Yrotation
						JOINT LeftElbow
						{
OFFSET 0 -4.841370 0.000000
CHANNELS 3 Zrotation Xrotation Yrotation
							JOINT LeftWrist
							{
OFFSET 0 -3.245200 -0.000000
CHANNELS 3 Zrotation Xrotation Yrotation
								JOINT lhand
								{
									OFFSET 0 0 0
CHANNELS 3 Zrotation Xrotation Yrotation
									JOINT LFingers
									{
OFFSET 0 -0.521220 0.000000
CHANNELS 3 Zrotation Xrotation Yrotation
										End Site
										{
OFFSET 0 -0.420220 0.000000
										}
									}
								}
								JOINT LThumb
								{
OFFSET 0 0.000000 0.000000
CHANNELS 3 Zrotation Xrotation Yrotation
									End Site
									{
OFFSET 0 -0.426640 0.426640
									}
								}
							}
						}
					}
				}
				JOINT RightCollar
				{
					OFFSET 0 0 0
					CHANNELS 3 Zrotation Yrotation Xrotation
					JOINT RightShoulder
					{
						OFFSET -2.84327 1.20795 0.50191
CHANNELS 3 Zrotation Xrotation Yrotation
						JOINT RightElbow
						{
OFFSET 0 -4.722840 0.000000
CHANNELS 3 Zrotation Xrotation Yrotation
							JOINT RightWrist
							{
OFFSET 0 -3.234590 0.000000
CHANNELS 3 Zrotation Xrotation Yrotation
								JOINT rhand
								{
									OFFSET 0 0 0
CHANNELS 3 Zrotation Xrotation Yrotation
									JOINT RFingers
									{
OFFSET 0 -0.307420 0.000000
CHANNELS 3 Zrotation Xrotation Yrotation
										End Site
										{
OFFSET 0 -0.247850 0.000000
										}
									}
								}
								JOINT RThumb
								{
OFFSET 0 0.000000 0.000000
CHANNELS 3 Zrotation Xrotation Yrotation
									End Site
									{
OFFSET 0 -0.251630 0.251630
									}
								}
							}
						}
					}
				}
			}
		}
	}
}
MOTION
Frames: 5
Frame Time: 0.008333333333333333
11.500000 16.076000 -10.217100 0.538800 -13.391000 8.322800 0.000000 0.000000 0.000000 -14.594800 -9.527000 -18.621600 3.667900 11.704900 34.695900 1.032000 10.011400 -25.251000 0.376100 -3.938600 -10.904100 0.000000 0.000000 0.000000 11.711100 22.896400 -29.915200 -3.712300 -11.767400 34.914100 1.000500 -17.429000 -8.015400 -0.577700 4.867200 -13.530200 1.114800 0.520100 12.691200 0.542700 0.758200 7.173300 -0.154900 0.379900 0.406700 -7.235600 -2.150100 -5.454600 15.371300 -1.733100 -9.306400 5.880500 -0.945400 -1.560800 -0.000000 -0.000000 0.000000 6.155700 -29.050600 -57.348900 139.373200 -48.436900 101.093100 -74.275900 -23.531600 -32.049600 0.000000 0.000000 0.000000 -7.125000 0.000000 0.000000 -78.818300 46.524900 8.584000 -0.000000 -0.000000 0.000000 -6.771100 -41.942700 44.890400 -91.147900 -59.995000 -60.994100 38.905700 14.564000 5.713800 0.000000 0.000000 0.000000 7.125000 0.000000 -0.000000 45.498200 29.596300 25.556400
11.354134 16.114248 -10.218793 0.958454 -9.804983 8.829030 0.000000 0.000000 0.000000 -14.070368 -11.525774 -18.631069 3.384497 11.292896 33.274102 0.905613 9.433970 -23.740674 0.605318 -4.975398 -13.839344 0.000000 0.000000 0.000000 11.371481 21.547286 -30.570102 -3.895686 -12.020248 35.803708 1.032552 -18.080929 -11.076746 -0.103416 2.037641 -5.610906 0.586145 -0.213431 13.469041 1.248243 -0.244118 7.763510 0.999548 -0.147296 0.608883 -7.631880 -2.470185 -6.088252 15.580266 -1.971215 -10.692382 6.032131 -1.072527 -1.819826 0.000000 0.000000 0.000000 5.016939 -38.953697 -48.103887 138.620761 -48.860697 100.526574 -67.230264 -4.057799 -32.571038 0.000000 0.000000 0.000000 -7.125000 0.000000 0.000000 -78.142798 47.038391 10.484200 0.000000 0.000000 0.000000 -8.116111 -29.727718 46.796780 -96.467189 -59.829731 -65.597143 59.652893 4.417873 6.026192 0.000000 0.000000 0.000000 7.125000 0.000000 0.000000 43.603662 9.039024 59.903678
11.274859 16.118693 -10.221197 -0.298862 -7.741080 10.006308 0.000000 0.000000 0.000000 -11.805794 -13.101378 -20.420948 3.571394 11.567066 34.217225 1.042458 8.060740 -23.794831 0.398477 -4.052775 -11.225164 0.000000 0.000000 0.000000 12.779697 20.603120 -31.087111 -3.705565 -11.757882 34.880845 1.094664 -18.529723 -11.081877 -0.047761 1.410029 -3.877840 1.698579 -1.590212 13.770695 2.655077 -1.915510 8.193151 2.053964 -0.977850 0.949995 -6.742575 -1.682385 -6.859275 14.496530 -1.027014 -10.236342 5.536211 -0.574001 -1.704077 0.000000 0.000000 0.000000 7.094397 -34.037322 -50.233641 122.471405 -55.613683 87.706806 -71.719990 2.352615 -27.055665 0.000000 0.000000 0.000000 -7.125000 0.000000 0.000000 -64.134016 40.808453 -14.385230 0.000000 0.000000 0.000000 -6.294627 -30.802410 49.965904 -122.618621 -55.559234 -87.825744 53.153919 -1.785888 8.409525 0.000000 0.000000 0.000000 7.125000 0.000000 0.000000 46.650979 22.695315 42.222976
11.294374 16.099112 -10.229406 1.465525 -11.920680 10.027148 0.000000 0.000000 0.000000 -14.281860 -11.059106 -20.140155 3.494392 11.455214 33.831137 1.054308 9.102599 -24.693334 0.214896 -2.976418 -8.213686 0.000000 0.000000 0.000000 10.584184 22.029744 -32.530507 -3.876949 -11.994843 35.713629 0.873831 -16.562485 -9.475575 -0.300186 3.522725 -9.737601 1.034082 -0.532169 15.027505 1.268373 -0.616397 8.634518 0.827945 -0.327161 0.708755 -7.840520 -2.931454 -4.879503 17.679067 -2.443877 -11.386212 6.762922 -1.438194 -2.100484 0.000000 0.000000 0.000000 8.134159 -27.533458 -61.031226 132.649481 -51.865003 95.924957 -81.416213 -41.182424 -23.872659 0.000000 0.000000 0.000000 -7.125000 0.000000 0.000000 -56.648751 35.171034 -27.950181 0.000000 0.000000 0.000000 -6.043895 -42.918942 44.067585 -121.705532 -55.830746 -87.072560 28.107761 12.764474 1.828556 0.000000 0.000000 0.000000 7.125000 0.000000 0.000000 39.508885 28.878364 20.415608
11.212209 16.118826 -10.209063 2.355910 -13.235594 10.613659 0.000000 0.000000 0.000000 -15.064270 -9.930032 -20.001654 3.198473 11.009595 32.312358 0.856591 10.110989 -23.903940 0.546093 -4.733680 -13.150669 0.000000 0.000000 0.000000 9.571176 23.223709 -33.751318 -4.016459 -12.182227 36.379742 0.928762 -16.932055 -8.901130 -0.445747 4.281504 -11.870267 0.305414 0.031940 15.074843 0.921345 0.026177 8.493411 0.785950 -0.024615 0.527647 -8.227445 -3.515695 -4.978798 17.893395 -3.493085 -9.109851 6.824453 -1.865314 -1.273130 0.000000 0.000000 0.000000 5.717522 -34.813262 -55.887239 145.544440 -44.418376 105.568655 -77.356049 -28.904519 -23.081607 0.000000 0.000000 0.000000 -7.125000 0.000000 0.000000 -53.981155 31.944018 -33.023817 0.000000 0.000000 0.000000 -8.372485 -39.082482 43.889311 -93.003447 -59.963856 -62.600645 49.113500 12.337453 4.265584 0.000000 0.000000 0.000000 7.125000 0.000000 0.000000 45.441161 21.944476 40.984629
